<svg viewBox="0 0 192 192" xmlns="http://www.w3.org/2000/svg">
  <rect width="192" height="192" fill="white" rx="45"/>
  <g transform="translate(24 24) scale(0.625)">
    <path d="M 40 50 Q 20 80 30 140 Q 50 160 80 170 L 80 50 Z" fill="#10b981"/>
    <path d="M 80 50 Q 75 70 78 110 Q 80 140 85 160 L 95 50 Z" fill="white"/>
    <g fill="#1f2937">
      <rect x="100" y="80" width="30" height="30" rx="3"/>
      <rect x="135" y="80" width="30" height="30" rx="3"/>
      <rect x="100" y="120" width="30" height="30" rx="3"/>
      <rect x="135" y="120" width="30" height="30" rx="3"/>
      <line x1="130" y1="95" x2="135" y2="95" stroke="#1f2937" stroke-width="3"/>
      <line x1="115" y1="110" x2="115" y2="120" stroke="#1f2937" stroke-width="3"/>
      <line x1="150" y1="110" x2="150" y2="120" stroke="#1f2937" stroke-width="3"/>
      <line x1="130" y1="135" x2="135" y2="135" stroke="#1f2937" stroke-width="3"/>
    </g>
    <circle cx="170" cy="50" r="12" fill="#f59e0b"/>
  </g>
</svg>
